<?xml version="1.0" encoding="UTF-8" standalone="no"?>
<!-- Created with Inkscape (http://www.inkscape.org/) -->

<svg
   version="1.1"
   id="svg1"
   width="65.193207"
   height="75.590546"
   viewBox="0 0 65.193207 75.590546"
   xmlns="http://www.w3.org/2000/svg"
   xmlns:svg="http://www.w3.org/2000/svg">
  <defs
     id="defs1">
    <linearGradient
       x1="147.11789"
       y1="56.402416"
       x2="132.91641"
       y2="20.1674"
       gradientUnits="userSpaceOnUse"
       gradientTransform="matrix(1.522234,0,0,1.522234,-185.16128,-30.699509)"
       spreadMethod="pad"
       id="linearGradient2">
      <stop
         style="stop-opacity:1;stop-color:#136746"
         offset="0"
         id="stop1" />
      <stop
         style="stop-opacity:1;stop-color:#30d997"
         offset="1"
         id="stop2" />
    </linearGradient>
  </defs>
  <g
     id="g1">
    <path
       id="path2"
       d="M 5.316,0 2.992,2.668 H 7.059 L 0.297,25.117 H 3.156 L 10.75,0 Z M 38.797,4.32 V 5.582 H 40 v 4.383 h 1.348 V 5.582 h 1.195 V 4.32 Z m 4.902,0 v 5.645 h 1.336 V 7.602 h 1.785 v 2.363 h 1.332 V 4.32 H 46.82 V 6.352 H 45.035 V 4.32 Z M 13.023,4.504 12.98,4.633 8.434,19.219 l 1.64,0.25 0.235,-0.168 c 0.648,-0.465 1.316,-0.824 2.007,-1.078 0.68,-0.243 1.551,-0.379 2.614,-0.379 0.222,0 0.441,0.008 0.656,0.023 0.785,-0.953 1.652,-1.832 2.598,-2.621 -0.946,-0.242 -1.95,-0.363 -3.004,-0.363 -0.766,0 -1.453,0.074 -2.078,0.226 -0.122,0.024 -0.207,0.063 -0.309,0.098 l 2.48,-7.656 H 26.156 V 4.504 Z m 17.782,8.117 c -3.086,0.027 -6.125,0.856 -8.797,2.395 -5.344,3.093 -8.942,8.871 -8.946,15.476 0,0.606 0.032,1.203 0.09,1.793 0.5,0.098 1.032,0.149 1.614,0.149 0.457,0 0.863,-0.039 1.242,-0.114 -0.098,-0.582 -0.176,-1.191 -0.238,-1.828 0,-5.629 3.046,-10.527 7.582,-13.144 4.535,-2.621 10.3,-2.809 15.175,0.007 6.727,4.766 7.649,9.926 5.578,14.286 -0.242,-0.621 -0.632,-1.321 -1.203,-1.547 -0.136,-0.055 -0.269,-0.078 -0.402,-0.078 -0.914,0 -1.617,1.175 -1.617,1.175 H 40.477 L 39.156,30.633 C 38.875,30.527 38.711,30.504 38.52,30.504 h -0.004 c -0.055,0 -0.11,0 -0.172,0 -0.387,0.008 -0.457,0.121 -0.457,0.121 v 0.004 l -10.957,1.793 0.886,0.676 0.102,0.132 c -0.043,0.059 0.352,7.477 -0.574,9.235 -3.11,0.242 -6.035,-0.582 -8.18,-2.922 -1.035,0.348 -2.117,0.566 -3.226,0.664 3.191,4.914 8.722,8.168 15,8.168 3.257,0 6.312,-0.875 8.941,-2.402 2.641,-1.516 4.926,-3.723 6.551,-6.539 4.929,-8.539 1.988,-19.496 -6.551,-24.422 -2.859,-1.653 -5.988,-2.422 -9.074,-2.391 z m -6.707,6.625 c -0.903,0.547 -1.731,1.203 -2.469,1.945 0.324,0.473 0.598,0.993 0.816,1.563 0.387,1.004 0.578,2.078 0.578,3.258 0,1.289 -0.207,2.472 -0.621,3.558 l -0.004,0.008 v 0.008 c -0.39,1.055 -0.949,1.973 -1.695,2.766 -0.715,0.765 -1.586,1.378 -2.625,1.847 v -0.004 c -0.996,0.434 -2.086,0.657 -3.312,0.657 -1.715,0 -3.243,-0.368 -4.618,-1.094 h -0.003 c -0.004,0 -0.004,-0.004 -0.008,-0.004 C 8.809,33.035 7.688,31.957 6.766,30.461 L 6.355,29.793 5.738,30.262 3.832,31.703 4.188,32.25 H 4.184 c 1.121,1.77 2.601,3.156 4.41,4.137 1.812,0.976 3.828,1.465 6,1.465 1.648,0 3.187,-0.297 4.594,-0.895 1.406,-0.59 2.628,-1.398 3.644,-2.434 l 0.008,-0.007 0.008,-0.012 0.007,-0.004 c 1.047,-1.043 1.852,-2.301 2.415,-3.746 0.597,-1.457 0.89,-3.043 0.89,-4.742 0,-1.582 -0.262,-3.051 -0.797,-4.395 L 25.344,21.578 25.316,21.559 C 25,20.723 24.594,19.945 24.098,19.246 Z m 11.543,1.844 c -0.254,-0.004 -0.465,0.199 -0.469,0.453 0,0.219 0.148,0.41 0.363,0.457 0,0 0.106,0.32 -0.086,0.445 -0.195,0.129 -0.765,0.289 -0.765,0.844 0.281,-0.074 1.57,-0.332 1.816,-0.344 -0.066,-0.043 -0.336,-0.515 -0.629,-0.574 -0.047,-0.051 -0.066,-0.148 -0.078,-0.23 -0.008,-0.082 -0.008,-0.157 -0.008,-0.157 0.027,-0.007 0.055,-0.019 0.078,-0.035 0.141,-0.078 0.231,-0.23 0.235,-0.394 0,-0.227 -0.164,-0.442 -0.391,-0.461 C 35.684,21.09 35.664,21.09 35.641,21.09 Z m 2.797,1.781 c -0.008,0 -0.016,0 -0.024,0.004 l -11.93,2.555 1.977,0.902 c 0.004,-0.008 0.012,-0.016 0.019,-0.023 l -0.019,0.023 0.062,0.109 c -0.003,0 -0.007,0 -0.011,0 l 0.031,3.2 v 0.007 c 0,0.012 0,0.114 0.004,0.2 0,0.082 0.004,0.492 0.004,0.55 0.008,-0.003 0.008,-0.007 0.015,-0.011 0.02,-0.02 0.043,-0.039 0.067,-0.059 0.047,-0.039 0.094,-0.078 0.14,-0.117 0.047,-0.039 0.094,-0.074 0.141,-0.113 0.047,-0.036 0.098,-0.071 0.145,-0.106 0.046,-0.035 0.093,-0.07 0.144,-0.105 0.047,-0.035 0.094,-0.067 0.137,-0.098 0.047,-0.031 0.094,-0.062 0.137,-0.09 0.046,-0.031 0.089,-0.058 0.128,-0.086 0.043,-0.027 0.086,-0.054 0.122,-0.078 0.039,-0.023 0.078,-0.047 0.113,-0.066 0.07,-0.043 0.133,-0.082 0.183,-0.114 0.039,-0.023 0.067,-0.035 0.094,-0.05 0.117,-0.801 0.633,-3.129 2.774,-3.489 1.906,-0.25 3.05,1.508 3.043,3.368 0.347,0.035 2.031,0.816 2.031,0.816 l 0.828,0.016 c 0,0 0.008,-0.688 0.004,-1.493 -0.004,-1 0.476,-2.925 1.691,-2.32 0.75,0.375 1.035,1.594 1.145,2.481 l 0.398,-0.168 0.582,0.914 -0.121,-2.438 c -0.012,0 -0.023,0 -0.031,-0.008 l 0.25,-0.015 1.855,-0.321 -5.875,-3.71 c 0,0 -0.035,-0.036 -0.129,-0.055 -0.015,0 -0.027,-0.004 -0.042,-0.004 -0.024,-0.004 -0.051,-0.008 -0.082,-0.008 z m -4.551,3.281 c -2.946,0.114 -3.426,2.899 -3.426,2.899 0,0 0.398,-0.321 0.523,-0.379 0.481,-2.07 2.903,-2.52 2.903,-2.52 z m 6.289,0.34 c -0.305,0.008 -0.524,0.262 -0.524,0.262 0.813,0.269 1.118,1.605 1.2,2.058 -0.149,0.047 -0.297,0.083 -0.387,0.083 -0.262,0.007 -1.52,-0.543 -1.52,-0.543 l 0.004,1.664 2.485,-1.243 -0.032,-0.152 C 41.059,26.859 40.555,26.48 40.176,26.492 Z m -8.129,1.832 -5.211,3.91 1.723,-0.289 0.238,-0.039 6.269,-1.047 0.204,-0.035 2.628,-0.437 z m 9.976,0.567 -2.859,1.527 1.465,0.629 c 0.012,-0.024 0.027,-0.043 0.039,-0.063 0.016,-0.023 0.027,-0.043 0.039,-0.062 0.016,-0.024 0.027,-0.043 0.039,-0.063 0.016,-0.019 0.027,-0.039 0.043,-0.058 0.012,-0.016 0.027,-0.035 0.039,-0.055 0.016,-0.019 0.031,-0.035 0.043,-0.055 0.016,-0.015 0.027,-0.035 0.043,-0.05 0.012,-0.016 0.027,-0.032 0.039,-0.051 0.016,-0.016 0.031,-0.031 0.043,-0.047 0.016,-0.016 0.027,-0.031 0.043,-0.043 0.012,-0.016 0.027,-0.031 0.043,-0.047 0.012,-0.012 0.027,-0.027 0.043,-0.039 0.012,-0.016 0.027,-0.027 0.039,-0.039 0.016,-0.016 0.031,-0.027 0.043,-0.039 0.016,-0.012 0.031,-0.024 0.043,-0.035 0.016,-0.016 0.031,-0.028 0.043,-0.039 0.016,-0.008 0.027,-0.02 0.043,-0.032 0.012,-0.011 0.027,-0.019 0.043,-0.031 0.012,-0.011 0.027,-0.019 0.043,-0.031 0.012,-0.008 0.027,-0.016 0.039,-0.027 0.016,-0.008 0.027,-0.016 0.043,-0.028 0.012,-0.008 0.027,-0.015 0.043,-0.023 0.012,-0.008 0.027,-0.016 0.039,-0.024 0.016,-0.007 0.027,-0.015 0.043,-0.023 0.012,-0.008 0.027,-0.016 0.039,-0.02 0.016,-0.007 0.027,-0.015 0.043,-0.023 0.012,-0.004 0.023,-0.012 0.039,-0.016 0.012,-0.007 0.027,-0.011 0.039,-0.019 0.016,-0.004 0.027,-0.012 0.039,-0.016 0.012,-0.004 0.027,-0.008 0.039,-0.015 0.024,-0.008 0.051,-0.016 0.074,-0.028 0.024,-0.008 0.051,-0.015 0.075,-0.019 0.023,-0.008 0.046,-0.016 0.07,-0.02 0.023,-0.008 0.043,-0.012 0.066,-0.015 0.02,-0.004 0.043,-0.008 0.063,-0.012 0.019,-0.004 0.039,-0.008 0.058,-0.012 0.02,0 0.039,-0.004 0.059,-0.004 0.02,-0.004 0.035,-0.004 0.051,-0.008 0.015,0 0.035,0 0.051,0 0.015,0 0.027,-0.004 0.043,-0.004 0.011,0 0.023,0 0.035,0 0.015,0 0.023,0 0.035,0 0.012,0.004 0.019,0.004 0.027,0.004 0.016,0 0.031,0 0.039,0.004 0.008,0 0.008,0 0.008,0 z m -4.394,2.617 0.176,6.816 c -0.133,0.082 -0.27,0.168 -0.403,0.25 0.039,-3.008 0.09,-6.894 0.067,-6.914 z m -2.387,1.222 c 0.008,-0.003 0.016,0.004 0.016,0.004 0.008,0 0.015,-0.007 0.023,0 0.129,0.121 0.11,4.223 0.133,6.504 0,0.145 0.008,0.328 0.008,0.489 -0.074,0.043 -0.149,0.085 -0.223,0.128 0,-0.207 0,-0.433 0,-0.613 -0.008,-2.285 -0.09,-6.383 0.035,-6.508 0,-0.004 0.004,-0.004 0.008,-0.004 z m -1.457,0.368 c 0.199,0 0.328,0.019 0.348,0.074 0.113,3.687 0.058,5.937 -0.02,7.269 -0.226,0.118 -0.457,0.227 -0.687,0.336 0.242,-3.605 0.117,-6.738 0.117,-6.738 -0.977,0.023 -1.449,0.145 -1.449,0.145 l -0.059,7.179 c -0.504,0.192 -1.012,0.364 -1.519,0.508 0.261,-1.152 0.019,-2.078 0.101,-8.25 0.156,-0.09 2.313,-0.519 3.168,-0.523 z m -8.988,20.523 0.07,1.117 h 0.469 L 25.41,53.621 Z M 1.148,53.637 c -0.343,0 -0.609,0.078 -0.796,0.238 -0.188,0.156 -0.282,0.379 -0.282,0.66 0,0.149 0.032,0.277 0.09,0.391 0.063,0.113 0.145,0.207 0.25,0.289 0.11,0.078 0.238,0.133 0.383,0.172 l 0.418,0.101 c 0.101,0.032 0.176,0.071 0.23,0.125 0.055,0.051 0.086,0.114 0.086,0.184 0,0.09 -0.039,0.164 -0.121,0.219 C 1.332,56.07 1.238,56.098 1.121,56.098 1.004,56.094 0.906,56.062 0.828,56.004 0.754,55.941 0.699,55.871 0.668,55.789 L 0,55.977 c 0.016,0.097 0.059,0.187 0.125,0.269 0.066,0.082 0.152,0.156 0.258,0.223 0.105,0.066 0.222,0.117 0.351,0.156 0.133,0.035 0.27,0.055 0.414,0.055 0.231,0 0.426,-0.035 0.586,-0.106 0.164,-0.07 0.289,-0.176 0.371,-0.304 0.086,-0.133 0.133,-0.293 0.133,-0.477 0,-0.203 -0.07,-0.387 -0.203,-0.547 C 1.902,55.082 1.719,54.973 1.48,54.914 L 1.062,54.809 C 0.973,54.789 0.898,54.754 0.844,54.707 0.793,54.66 0.766,54.602 0.766,54.531 c 0,-0.101 0.031,-0.176 0.097,-0.23 0.067,-0.055 0.157,-0.082 0.278,-0.082 0.117,0 0.211,0.031 0.285,0.093 0.074,0.063 0.125,0.133 0.144,0.208 l 0.668,-0.2 C 2.176,54.172 2.098,54.043 1.996,53.945 1.898,53.844 1.781,53.766 1.641,53.715 1.5,53.664 1.336,53.637 1.148,53.637 Z m 13.528,0 c -0.34,0 -0.606,0.078 -0.793,0.238 -0.188,0.156 -0.281,0.379 -0.281,0.66 0,0.149 0.027,0.277 0.086,0.391 0.062,0.113 0.148,0.207 0.253,0.289 0.11,0.078 0.235,0.133 0.383,0.172 l 0.414,0.101 c 0.102,0.032 0.18,0.071 0.231,0.125 0.058,0.051 0.086,0.114 0.086,0.184 0,0.09 -0.039,0.164 -0.117,0.219 -0.079,0.054 -0.172,0.082 -0.286,0.082 -0.117,-0.004 -0.218,-0.036 -0.297,-0.094 -0.074,-0.063 -0.128,-0.133 -0.16,-0.215 l -0.668,0.188 c 0.02,0.097 0.059,0.187 0.129,0.269 0.067,0.082 0.153,0.156 0.254,0.223 0.106,0.066 0.227,0.117 0.356,0.156 0.129,0.035 0.269,0.055 0.41,0.055 0.23,0 0.426,-0.035 0.59,-0.106 0.16,-0.07 0.285,-0.176 0.371,-0.304 0.086,-0.133 0.129,-0.293 0.129,-0.477 0,-0.203 -0.067,-0.387 -0.204,-0.547 -0.128,-0.164 -0.316,-0.273 -0.554,-0.332 L 14.594,54.809 C 14.5,54.789 14.426,54.754 14.375,54.707 14.32,54.66 14.293,54.602 14.293,54.531 c 0,-0.101 0.035,-0.176 0.098,-0.23 0.066,-0.055 0.16,-0.082 0.277,-0.082 0.117,0 0.215,0.031 0.285,0.093 0.078,0.063 0.125,0.133 0.149,0.208 l 0.664,-0.2 c -0.059,-0.148 -0.141,-0.277 -0.239,-0.375 -0.097,-0.101 -0.218,-0.179 -0.359,-0.23 -0.141,-0.051 -0.305,-0.078 -0.492,-0.078 z m 12.386,0 c -0.339,0 -0.605,0.078 -0.792,0.238 -0.188,0.156 -0.282,0.379 -0.282,0.66 0,0.149 0.028,0.277 0.086,0.391 0.063,0.113 0.149,0.207 0.254,0.289 0.11,0.078 0.238,0.133 0.383,0.172 l 0.414,0.101 c 0.102,0.032 0.18,0.071 0.234,0.125 0.055,0.051 0.082,0.114 0.082,0.184 0,0.09 -0.039,0.164 -0.117,0.219 -0.074,0.054 -0.172,0.082 -0.285,0.082 -0.117,-0.004 -0.215,-0.036 -0.297,-0.094 -0.074,-0.063 -0.125,-0.133 -0.156,-0.215 l -0.672,0.188 c 0.02,0.097 0.063,0.187 0.129,0.269 0.066,0.082 0.152,0.156 0.254,0.223 0.109,0.066 0.226,0.117 0.355,0.156 0.129,0.035 0.27,0.055 0.41,0.055 0.231,0 0.426,-0.035 0.59,-0.106 0.16,-0.07 0.286,-0.176 0.371,-0.304 0.086,-0.133 0.129,-0.293 0.129,-0.477 0,-0.203 -0.066,-0.387 -0.203,-0.547 -0.129,-0.164 -0.316,-0.273 -0.554,-0.332 L 26.98,54.809 c -0.093,-0.02 -0.168,-0.055 -0.218,-0.102 -0.055,-0.047 -0.082,-0.105 -0.082,-0.176 0,-0.101 0.035,-0.176 0.097,-0.23 0.067,-0.055 0.161,-0.082 0.278,-0.082 0.117,0 0.215,0.031 0.285,0.093 0.078,0.063 0.125,0.133 0.148,0.208 l 0.664,-0.2 c -0.058,-0.148 -0.136,-0.277 -0.238,-0.375 -0.098,-0.101 -0.219,-0.179 -0.359,-0.23 -0.141,-0.051 -0.305,-0.078 -0.493,-0.078 z m 4.055,0 c -0.293,0 -0.551,0.066 -0.773,0.199 -0.223,0.129 -0.399,0.305 -0.528,0.535 -0.125,0.227 -0.187,0.488 -0.187,0.785 0,0.301 0.062,0.563 0.187,0.793 0.129,0.227 0.305,0.406 0.528,0.539 0.222,0.129 0.48,0.192 0.773,0.192 0.215,0 0.414,-0.039 0.594,-0.114 0.176,-0.074 0.332,-0.179 0.465,-0.316 0.133,-0.137 0.23,-0.293 0.297,-0.473 L 31.84,55.562 c -0.047,0.098 -0.106,0.184 -0.172,0.258 -0.066,0.078 -0.145,0.137 -0.234,0.18 -0.086,0.043 -0.192,0.062 -0.305,0.062 -0.156,0 -0.297,-0.039 -0.422,-0.113 -0.117,-0.078 -0.215,-0.183 -0.285,-0.32 -0.067,-0.137 -0.102,-0.293 -0.102,-0.473 0,-0.176 0.035,-0.328 0.102,-0.465 0.066,-0.136 0.16,-0.242 0.281,-0.32 0.121,-0.074 0.258,-0.113 0.414,-0.113 0.11,0 0.207,0.019 0.297,0.058 0.094,0.039 0.176,0.098 0.246,0.168 0.07,0.075 0.129,0.161 0.172,0.258 l 0.633,-0.215 c -0.07,-0.175 -0.172,-0.332 -0.301,-0.465 -0.129,-0.136 -0.285,-0.238 -0.465,-0.312 -0.176,-0.074 -0.371,-0.113 -0.582,-0.113 z m 14.028,0 c -0.305,0 -0.571,0.066 -0.805,0.199 -0.231,0.129 -0.41,0.305 -0.543,0.535 -0.133,0.227 -0.195,0.488 -0.195,0.785 0,0.301 0.062,0.563 0.195,0.793 0.133,0.227 0.312,0.406 0.543,0.539 0.234,0.129 0.5,0.192 0.805,0.192 0.261,0 0.492,-0.051 0.691,-0.153 0.199,-0.101 0.355,-0.246 0.473,-0.445 0.105,-0.184 0.164,-0.406 0.171,-0.668 v -0.398 h -1.316 v 0.519 h 0.668 c -0.008,0.094 -0.035,0.172 -0.082,0.246 -0.062,0.09 -0.141,0.16 -0.242,0.211 -0.102,0.047 -0.215,0.074 -0.348,0.074 -0.176,0 -0.328,-0.039 -0.457,-0.117 -0.133,-0.078 -0.234,-0.183 -0.305,-0.32 -0.07,-0.137 -0.105,-0.293 -0.105,-0.473 0,-0.176 0.039,-0.328 0.109,-0.465 0.075,-0.136 0.172,-0.242 0.301,-0.32 0.129,-0.074 0.274,-0.113 0.442,-0.113 0.082,0 0.164,0.015 0.246,0.047 0.082,0.027 0.156,0.07 0.222,0.121 0.071,0.054 0.125,0.113 0.168,0.183 l 0.559,-0.336 c -0.074,-0.125 -0.168,-0.234 -0.285,-0.328 -0.114,-0.097 -0.25,-0.172 -0.403,-0.226 -0.152,-0.055 -0.32,-0.082 -0.507,-0.082 z m -33.536,0.004 c -0.3,0 -0.566,0.066 -0.797,0.199 -0.23,0.129 -0.41,0.305 -0.542,0.535 -0.133,0.227 -0.2,0.488 -0.2,0.789 0,0.293 0.067,0.555 0.2,0.785 0.128,0.227 0.312,0.406 0.546,0.539 0.231,0.129 0.5,0.192 0.801,0.192 0.301,0 0.567,-0.063 0.797,-0.192 0.227,-0.133 0.406,-0.312 0.535,-0.539 0.133,-0.23 0.199,-0.492 0.199,-0.785 0,-0.301 -0.066,-0.562 -0.199,-0.789 -0.129,-0.23 -0.312,-0.406 -0.547,-0.535 -0.23,-0.133 -0.492,-0.199 -0.793,-0.199 z m 22.723,0 c -0.301,0 -0.566,0.066 -0.801,0.199 -0.23,0.129 -0.41,0.305 -0.543,0.535 -0.129,0.227 -0.195,0.488 -0.195,0.789 0,0.293 0.062,0.555 0.195,0.785 0.133,0.227 0.317,0.406 0.547,0.539 0.235,0.129 0.5,0.192 0.805,0.192 0.301,0 0.562,-0.063 0.793,-0.192 0.23,-0.133 0.41,-0.312 0.539,-0.539 0.133,-0.23 0.195,-0.492 0.195,-0.785 0,-0.301 -0.062,-0.562 -0.195,-0.789 -0.133,-0.23 -0.313,-0.406 -0.547,-0.535 -0.23,-0.133 -0.496,-0.199 -0.793,-0.199 z m -14.293,0.043 -0.566,0.004 h -0.59 v 2.941 h 0.679 v -0.93 h 0.5 c 0.211,0 0.395,-0.043 0.559,-0.129 0.164,-0.086 0.289,-0.207 0.379,-0.359 0.09,-0.152 0.137,-0.324 0.137,-0.52 0,-0.199 -0.047,-0.375 -0.141,-0.523 -0.094,-0.152 -0.223,-0.273 -0.387,-0.359 -0.168,-0.086 -0.355,-0.129 -0.57,-0.125 z m 1.535,0 v 2.945 l 0.676,0.004 v -1.192 h 1.223 v 1.188 h 0.675 v -2.941 h -0.675 v 1.128 H 22.25 V 53.688 Z M 2.562,53.688 v 0.621 h 0.856 v 2.32 h 0.676 v -2.32 h 0.855 v -0.621 z m 6.356,0 v 1.882 c 0,0.114 -0.02,0.211 -0.063,0.285 C 8.816,55.93 8.766,55.984 8.703,56.02 8.637,56.055 8.566,56.07 8.488,56.07 8.383,56.07 8.297,56.035 8.227,55.969 8.156,55.902 8.105,55.805 8.066,55.676 L 7.48,55.875 c 0.008,0.078 0.032,0.168 0.075,0.262 0.043,0.093 0.109,0.183 0.187,0.269 0.086,0.086 0.188,0.153 0.309,0.207 0.121,0.051 0.265,0.078 0.429,0.078 0.165,0 0.317,-0.019 0.454,-0.066 C 9.07,56.582 9.188,56.52 9.285,56.438 9.387,56.352 9.461,56.254 9.512,56.137 9.566,56.02 9.594,55.891 9.594,55.746 v -2.058 z m 7.391,0 v 2.941 h 1.937 v -0.621 h -1.258 v -0.559 h 1.035 v -0.601 h -1.035 v -0.539 h 1.239 v -0.621 z m 20.078,0 v 2.941 h 1.929 v -0.621 h -1.25 v -2.32 z m 2.398,0 v 2.941 h 1.93 v -0.621 h -1.25 v -2.32 z m 2.399,0 v 2.941 h 1.937 v -0.621 h -1.258 v -0.559 h 1.035 v -0.601 h -1.035 v -0.539 h 1.239 v -0.621 z m 5.773,0 v 2.941 h 1.938 v -0.621 h -1.262 v -0.559 h 1.039 v -0.601 h -1.039 v -0.539 h 1.242 v -0.621 z m -35.348,0.57 c 0.164,0 0.313,0.039 0.438,0.117 0.125,0.078 0.226,0.184 0.297,0.32 0.074,0.137 0.109,0.289 0.109,0.469 0,0.172 -0.035,0.328 -0.105,0.465 -0.067,0.137 -0.168,0.238 -0.293,0.316 -0.125,0.075 -0.274,0.114 -0.438,0.114 -0.164,0 -0.312,-0.039 -0.441,-0.114 -0.129,-0.078 -0.231,-0.179 -0.301,-0.316 -0.074,-0.137 -0.109,-0.293 -0.109,-0.465 0,-0.18 0.035,-0.332 0.109,-0.469 0.07,-0.136 0.172,-0.242 0.297,-0.32 0.125,-0.078 0.273,-0.117 0.437,-0.117 z m 22.723,0 c 0.164,0 0.309,0.039 0.438,0.117 0.125,0.078 0.222,0.184 0.296,0.32 0.075,0.137 0.11,0.289 0.11,0.469 0,0.172 -0.035,0.328 -0.106,0.465 -0.07,0.137 -0.168,0.238 -0.293,0.316 -0.129,0.075 -0.273,0.114 -0.437,0.114 -0.168,0 -0.313,-0.039 -0.442,-0.114 -0.128,-0.078 -0.23,-0.179 -0.304,-0.316 -0.071,-0.137 -0.11,-0.293 -0.11,-0.465 0,-0.18 0.039,-0.332 0.11,-0.469 0.074,-0.136 0.172,-0.242 0.301,-0.32 0.125,-0.078 0.269,-0.117 0.437,-0.117 z m -14.77,0.047 h 0.461 c 0.086,0 0.157,0.015 0.219,0.05 0.067,0.032 0.113,0.075 0.149,0.133 0.035,0.059 0.054,0.129 0.054,0.203 0,0.114 -0.039,0.211 -0.109,0.282 -0.074,0.07 -0.172,0.105 -0.289,0.105 H 19.562 Z M 5.664,55.922 C 5.566,55.93 5.48,55.965 5.41,56.035 c -0.074,0.078 -0.113,0.168 -0.113,0.27 0,0.109 0.039,0.199 0.113,0.273 0.074,0.078 0.168,0.113 0.274,0.113 0.101,0 0.191,-0.035 0.269,-0.113 0.074,-0.074 0.113,-0.164 0.113,-0.273 0,-0.102 -0.039,-0.192 -0.113,-0.27 -0.078,-0.074 -0.168,-0.113 -0.269,-0.113 -0.008,0 -0.016,0 -0.02,0 z"
       style="fill:url(#linearGradient2);stroke:none"
       transform="scale(1.3333333)" />
  </g>
</svg>
