<?xml version="1.0" encoding="UTF-8"?>
<svg id="svg7" xmlns="http://www.w3.org/2000/svg" version="1.1" xmlns:svg="http://www.w3.org/2000/svg" viewBox="0 0 121.4 140.8">
  <defs>
    <style>
      .cls-1 {
        fill: #fff;
        stroke-width: 0px;
      }
    </style>
  </defs>
  <g id="layer1">
    <path id="path722" class="cls-1" d="M13.2,0l-5.8,6.6h10.1L.7,62.4h7.1L26.7,0h-13.5ZM96.3,10.7v3.1h3v10.9h3.3v-10.9h3v-3.1h-9.3ZM108.5,10.7v14h3.3v-5.9h4.4v5.9h3.3v-14h-3.3v5h-4.4v-5h-3.3ZM32.3,11.2v.3c-.1,0-11.4,36.2-11.4,36.2l4.1.6.6-.4c1.6-1.2,3.3-2,5-2.7,1.7-.6,3.9-.9,6.5-.9s1.1,0,1.6,0c1.9-2.4,4.1-4.5,6.4-6.5-2.3-.6-4.8-.9-7.5-.9s-3.6.2-5.2.6c-.3,0-.5.2-.8.2l6.2-19h27v-7.6h-32.6ZM76.5,31.3c-7.7,0-15.2,2.1-21.8,5.9-13.3,7.7-22.2,22-22.2,38.4,0,1.5,0,3,.2,4.5,1.2.2,2.6.4,4,.4s2.1,0,3.1-.3c-.2-1.4-.4-3-.6-4.5,0-14,7.6-26.1,18.8-32.6,11.3-6.5,25.6-7,37.7,0,16.7,11.8,19,24.7,13.9,35.5-.6-1.5-1.6-3.3-3-3.8-.3-.1-.7-.2-1-.2h0c-2.3,0-4,2.9-4,2.9h-1l-3.3-1.4c-.7-.3-1.1-.3-1.6-.3h0c-.1,0-.3,0-.4,0-1,0-1.1.3-1.1.3h0s-27.2,4.5-27.2,4.5l2.2,1.7.3.3c-.1.2.9,18.6-1.4,22.9-7.7.6-15-1.4-20.3-7.2-2.6.9-5.2,1.4-8,1.7,7.9,12.2,21.7,20.3,37.2,20.3,8.1,0,15.7-2.2,22.2-6h0c6.5-3.8,12.2-9.2,16.3-16.2,12.2-21.2,4.9-48.4-16.3-60.6-7.1-4.1-14.9-6-22.5-5.9h0ZM59.8,47.8c-2.2,1.4-4.3,3-6.1,4.8.8,1.2,1.5,2.5,2,3.9,1,2.5,1.4,5.2,1.4,8.1s-.5,6.1-1.5,8.8h0s0,0,0,0c-1,2.6-2.4,4.9-4.2,6.9-1.8,1.9-3.9,3.4-6.5,4.6h0c-2.5,1.1-5.2,1.6-8.2,1.6s-8-.9-11.5-2.7h0s0,0,0,0c-3.3-1.8-6.1-4.5-8.4-8.2l-1-1.7-1.5,1.2-4.7,3.6.9,1.4h0c2.8,4.4,6.5,7.8,11,10.3,4.5,2.4,9.5,3.6,14.9,3.6s7.9-.7,11.4-2.2c3.5-1.5,6.5-3.5,9.1-6h0s0,0,0,0h0c2.6-2.6,4.6-5.7,6-9.3,1.5-3.6,2.2-7.6,2.2-11.8s-.6-7.6-2-10.9h0c0-.1,0-.2,0-.2-.8-2.1-1.8-4-3-5.7h0ZM88.5,52.4c-.6,0-1.2.5-1.2,1.1,0,.5.4,1,.9,1.1,0,0,.3.8-.2,1.1-.5.3-1.9.7-1.9,2.1.7-.2,3.9-.8,4.5-.9-.2-.1-.8-1.3-1.6-1.4-.1-.1-.2-.4-.2-.6,0-.2,0-.4,0-.4,0,0,.1,0,.2,0,.4-.2.6-.6.6-1,0-.6-.4-1.1-1-1.1h0c0,0-.1,0-.2,0h0ZM95.4,56.8s0,0,0,0l-29.6,6.3,4.9,2.2s0,0,0,0h0c0,0,.2.3.2.3,0,0,0,0,0,0v7.9c0,0,0,0,0,0,0,0,0,.3,0,.5,0,.2,0,1.2,0,1.4,0,0,0,0,0,0,0,0,.1,0,.2-.1.1,0,.2-.2.3-.3.1,0,.2-.2.4-.3.1,0,.2-.2.4-.3.1,0,.2-.2.4-.3.1,0,.2-.2.3-.2.1,0,.2-.2.3-.2.1,0,.2-.1.3-.2.1,0,.2-.1.3-.2,0,0,.2-.1.3-.2.2-.1.3-.2.5-.3,0,0,.2,0,.2-.1.3-2,1.6-7.8,6.9-8.7,4.7-.6,7.6,3.7,7.6,8.4.9,0,5,2,5,2h2.1s0-1.7,0-3.7c0-2.5,1.2-7.3,4.2-5.8,1.9.9,2.6,4,2.8,6.2l1-.4,1.4,2.3-.3-6.1s0,0,0,0h.6s4.6-.8,4.6-.8l-14.6-9.2s0,0-.3-.1c0,0,0,0-.1,0,0,0-.1,0-.2,0h0ZM84.1,64.9c-7.3.3-8.5,7.2-8.5,7.2,0,0,1-.8,1.3-.9,1.2-5.1,7.2-6.3,7.2-6.3h0ZM99.7,65.8c-.7,0-1.3.7-1.3.7,2,.7,2.8,4,3,5.1-.4.1-.7.2-1,.2-.6,0-3.8-1.4-3.8-1.4v4.1s6.2-3.1,6.2-3.1v-.4c-.9-4.4-2.2-5.3-3.1-5.3h0ZM79.6,70.3l-12.9,9.7,4.3-.7h.6c0,0,15.6-2.7,15.6-2.7h.5c0,0,6.5-1.2,6.5-1.2l-14.5-5.1ZM104.3,71.7l-7.1,3.8,3.6,1.6c0,0,0-.1,0-.2,0,0,0-.1,0-.2,0,0,0,0,0-.1,0,0,0,0,.1-.1,0,0,0,0,.1-.1,0,0,0,0,.1-.1,0,0,0,0,.1-.1,0,0,0,0,.1-.1,0,0,0,0,.1-.1,0,0,0,0,.1-.1,0,0,0,0,.1-.1,0,0,0,0,.1-.1,0,0,0,0,.1,0,0,0,0,0,.1,0,0,0,0,0,.1,0,0,0,0,0,.1,0,0,0,0,0,.1,0,0,0,0,0,.1,0,0,0,0,0,.1,0,0,0,0,0,.1,0,0,0,0,0,.1,0,0,0,0,0,.1,0,0,0,0,0,.1,0,0,0,0,0,.1,0,0,0,0,0,.1,0,0,0,0,0,.1,0,0,0,0,0,0,0,0,0,0,0,.1,0,0,0,0,0,0,0,0,0,0,0,0,0,0,0,.1,0,.2,0,0,0,.1,0,.2,0,0,0,.1,0,.2,0s.1,0,.2,0c0,0,.1,0,.2,0,0,0,.1,0,.1,0,0,0,0,0,.1,0,0,0,0,0,.1,0,0,0,0,0,.1,0,0,0,0,0,.1,0,0,0,0,0,0,0,0,0,0,0,0,0,0,0,0,0,0,0,0,0,0,0,0,0,0,0,0,0,0,0l-1.5-2.3ZM93.4,78.2l.4,16.9c-.3.2-.7.4-1,.6.1-7.5.2-17.1.2-17.2l.4-.4ZM87.5,81.3s0,0,0,0c0,0,0,0,0,0,.3.3.3,10.5.3,16.2,0,.4,0,.8,0,1.2-.2.1-.4.2-.6.3,0-.5,0-1.1,0-1.5,0-5.7-.2-15.8,0-16.2,0,0,0,0,0,0h0ZM83.9,82.2c.5,0,.8,0,.9.2.3,9.2.1,14.7,0,18.1-.6.3-1.1.6-1.7.8.6-8.9.3-16.7.3-16.7h0c-2.4,0-3.6.4-3.6.4v17.8c-1.4.5-2.7.9-3.9,1.3.7-2.9,0-5.2.2-20.5.4-.2,5.7-1.3,7.9-1.3h0ZM61.6,133.1l.2,2.8h1.2l.2-2.8h-1.5ZM2.8,133.2c-.8,0-1.5.2-2,.6-.5.4-.7.9-.7,1.6s0,.7.2,1c.2.3.4.5.6.7.3.2.6.3,1,.4l1,.3c.3,0,.4.2.6.3.1.1.2.3.2.5s0,.4-.3.5c-.2.1-.4.2-.7.2-.3,0-.5,0-.7-.2-.2-.2-.3-.3-.4-.5L0,139c0,.2.1.5.3.7.2.2.4.4.6.6.3.2.6.3.9.4.3,0,.7.1,1,.1.6,0,1.1,0,1.5-.3.4-.2.7-.4.9-.8.2-.3.3-.7.3-1.2s-.2-1-.5-1.4c-.3-.4-.8-.7-1.4-.8l-1-.3c-.2,0-.4-.1-.5-.3-.1-.1-.2-.3-.2-.4,0-.3,0-.4.2-.6.2-.1.4-.2.7-.2s.5,0,.7.2c.2.2.3.3.4.5l1.7-.5c-.1-.4-.3-.7-.6-.9-.2-.3-.5-.4-.9-.6-.3-.1-.8-.2-1.2-.2h0ZM36.4,133.2c-.8,0-1.5.2-2,.6-.5.4-.7.9-.7,1.6s0,.7.2,1c.2.3.4.5.6.7.3.2.6.3.9.4l1,.3c.3,0,.4.2.6.3.1.1.2.3.2.5s0,.4-.3.5c-.2.1-.4.2-.7.2-.3,0-.5,0-.7-.2-.2-.2-.3-.3-.4-.5l-1.7.5c0,.2.1.5.3.7.2.2.4.4.6.6.3.2.6.3.9.4.3,0,.7.1,1,.1.6,0,1.1,0,1.5-.3.4-.2.7-.4.9-.8.2-.3.3-.7.3-1.2s-.2-1-.5-1.4c-.3-.4-.8-.7-1.4-.8l-1-.3c-.2,0-.4-.1-.5-.3-.1-.1-.2-.3-.2-.4,0-.3,0-.4.2-.6.2-.1.4-.2.7-.2s.5,0,.7.2c.2.2.3.3.4.5l1.6-.5c-.1-.4-.3-.7-.6-.9-.2-.3-.5-.4-.9-.6-.3-.1-.8-.2-1.2-.2h0ZM67.2,133.2c-.8,0-1.5.2-2,.6-.5.4-.7.9-.7,1.6s0,.7.2,1c.2.3.4.5.6.7.3.2.6.3.9.4l1,.3c.3,0,.4.2.6.3.1.1.2.3.2.5s0,.4-.3.5c-.2.1-.4.2-.7.2-.3,0-.5,0-.7-.2-.2-.2-.3-.3-.4-.5l-1.7.5c0,.2.1.5.3.7.2.2.4.4.6.6.3.2.6.3.9.4.3,0,.7.1,1,.1.6,0,1.1,0,1.5-.3.4-.2.7-.4.9-.8.2-.3.3-.7.3-1.2s-.2-1-.5-1.4c-.3-.4-.8-.7-1.4-.8l-1-.3c-.2,0-.4-.1-.5-.3-.1-.1-.2-.3-.2-.4,0-.3,0-.4.2-.6.2-.1.4-.2.7-.2s.5,0,.7.2c.2.2.3.3.4.5l1.6-.5c-.1-.4-.3-.7-.6-.9-.2-.3-.5-.4-.9-.6-.3-.1-.8-.2-1.2-.2h0ZM77.3,133.2c-.7,0-1.4.2-1.9.5-.5.3-1,.8-1.3,1.3-.3.6-.5,1.2-.5,2s.2,1.4.5,2c.3.6.8,1,1.3,1.3.6.3,1.2.5,1.9.5s1,0,1.5-.3c.4-.2.8-.4,1.2-.8.3-.3.6-.7.7-1.2l-1.6-.5c-.1.2-.3.5-.4.6-.2.2-.4.3-.6.4-.2.1-.5.2-.8.2s-.7,0-1-.3c-.3-.2-.5-.5-.7-.8-.2-.3-.2-.7-.2-1.2s0-.8.2-1.2c.2-.3.4-.6.7-.8.3-.2.6-.3,1-.3s.5,0,.7.1c.2,0,.4.2.6.4.2.2.3.4.4.6l1.6-.5c-.2-.4-.4-.8-.8-1.2-.3-.3-.7-.6-1.1-.8-.4-.2-.9-.3-1.5-.3h0ZM112.1,133.2c-.8,0-1.4.2-2,.5-.6.3-1,.8-1.3,1.3-.3.6-.5,1.2-.5,2s.2,1.4.5,2c.3.6.8,1,1.3,1.3.6.3,1.2.5,2,.5s1.2-.1,1.7-.4c.5-.3.9-.6,1.2-1.1.3-.5.4-1,.4-1.7h0v-1h-3.3v1.3h1.7c0,.2,0,.4-.2.6-.1.2-.3.4-.6.5-.3.1-.5.2-.9.2s-.8,0-1.1-.3c-.3-.2-.6-.5-.8-.8-.2-.3-.3-.7-.3-1.2s0-.8.3-1.2c.2-.3.4-.6.7-.8.3-.2.7-.3,1.1-.3s.4,0,.6.1c.2,0,.4.2.6.3.2.1.3.3.4.4l1.4-.8c-.2-.3-.4-.6-.7-.8-.3-.2-.6-.4-1-.6-.4-.1-.8-.2-1.3-.2h0ZM28.8,133.2c-.7,0-1.4.2-2,.5-.6.3-1,.8-1.3,1.3-.3.6-.5,1.2-.5,2s.2,1.4.5,2c.3.6.8,1,1.4,1.3.6.3,1.2.5,2,.5s1.4-.2,2-.5c.6-.3,1-.8,1.3-1.3.3-.6.5-1.2.5-2s-.2-1.4-.5-2c-.3-.6-.8-1-1.4-1.3-.6-.3-1.2-.5-2-.5ZM85.2,133.2c-.7,0-1.4.2-2,.5-.6.3-1,.8-1.3,1.3-.3.6-.5,1.2-.5,2s.2,1.4.5,2c.3.6.8,1,1.4,1.3.6.3,1.2.5,2,.5s1.4-.2,2-.5c.6-.3,1-.8,1.3-1.3.3-.6.5-1.2.5-2s-.2-1.4-.5-2c-.3-.6-.8-1-1.4-1.3-.6-.3-1.2-.5-2-.5ZM49.8,133.3h-1.4s-1.5,0-1.5,0v7.3h1.7v-2.3h1.2c.5,0,1-.1,1.4-.3.4-.2.7-.5.9-.9.2-.4.3-.8.3-1.3s-.1-.9-.4-1.3c-.2-.4-.5-.7-1-.9-.4-.2-.9-.3-1.4-.3h0ZM53.6,133.3v7.3h1.7s0-3,0-3h3v3h1.7v-7.3h-1.7v2.8h-3v-2.8h-1.7ZM6.4,133.3v1.5h2.1v5.8h1.7v-5.8h2.1v-1.5h-5.9ZM22.1,133.3v4.7c0,.3,0,.5-.1.7,0,.2-.2.3-.4.4-.2,0-.3.1-.5.1s-.5,0-.6-.3c-.2-.2-.3-.4-.4-.7l-1.5.5c0,.2,0,.4.2.7.1.2.3.5.5.7.2.2.5.4.8.5.3.1.7.2,1.1.2s.8,0,1.1-.2c.3-.1.6-.3.9-.5.2-.2.4-.5.6-.7.1-.3.2-.6.2-1v-5.1h-1.7ZM40.5,133.3v7.3h4.8v-1.5h-3.1v-1.4h2.6v-1.5h-2.6v-1.3h3.1v-1.5h-4.8ZM90.3,133.3v7.3h4.8v-1.5h-3.1v-5.8h-1.7ZM96.3,133.3v7.3h4.8v-1.5h-3.1v-5.8h-1.7ZM102.3,133.3v7.3h4.8v-1.5h-3.1v-1.4h2.6v-1.5h-2.6v-1.3h3.1v-1.5h-4.8ZM116.6,133.3v7.3h4.8v-1.5h-3.1v-1.4h2.6v-1.5h-2.6v-1.3h3.1v-1.5h-4.8ZM28.8,134.7c.4,0,.8,0,1.1.3.3.2.6.5.7.8.2.3.3.7.3,1.2s0,.8-.3,1.2c-.2.3-.4.6-.7.8-.3.2-.7.3-1.1.3s-.8,0-1.1-.3-.6-.4-.8-.8c-.2-.3-.3-.7-.3-1.2s0-.8.3-1.2c.2-.3.4-.6.7-.8.3-.2.7-.3,1.1-.3h0ZM85.2,134.7c.4,0,.8,0,1.1.3.3.2.6.5.7.8.2.3.3.7.3,1.2s0,.8-.3,1.2c-.2.3-.4.6-.7.8-.3.2-.7.3-1.1.3h0c-.4,0-.8,0-1.1-.3-.3-.2-.6-.4-.8-.8-.2-.3-.3-.7-.3-1.2s0-.8.3-1.2c.2-.3.4-.6.7-.8.3-.2.7-.3,1.1-.3ZM48.6,134.8h1.1c.2,0,.4,0,.5.1.2,0,.3.2.4.3,0,.1.1.3.1.5,0,.3,0,.5-.3.7-.2.2-.4.3-.7.3h-1.2v-1.9ZM14.1,138.9c-.2,0-.5.1-.6.3-.2.2-.3.4-.3.7s0,.5.3.7c.2.2.4.3.7.3s.5,0,.7-.3c.2-.2.3-.4.3-.7s0-.5-.3-.7c-.2-.2-.4-.3-.7-.3s0,0,0,0h0Z"/>
  </g>
</svg>