<?xml version="1.0" encoding="UTF-8" standalone="no"?>
<!-- Created with Inkscape (http://www.inkscape.org/) -->

<svg
   width="121.40037"
   height="140.76172"
   viewBox="0 0 32.120515 37.243202"
   version="1.1"
   id="svg7"
   xml:space="preserve"
   xmlns="http://www.w3.org/2000/svg"
   xmlns:svg="http://www.w3.org/2000/svg"><defs
     id="defs4" /><g
     id="layer1"
     transform="translate(-121.63779,-20.167399)"
     style="display:inline"><path
       id="path722"
       style="font-weight:800;font-size:2.76159px;line-height:1.1;font-family:Figtree;-inkscape-font-specification:'Figtree Ultra-Bold';font-variant-ligatures:discretionary-ligatures;font-variant-numeric:ordinal;text-align:end;letter-spacing:0.0705263px;text-anchor:end;stroke-width:0.264582"
       d="m 125.13008,20.1674 -1.52549,1.753898 h 2.67064 l -4.44262,14.745869 h 1.87844 L 128.70092,20.1674 h -0.19637 z m 21.99349,2.838069 v 0.828373 h 0.79117 v 2.878894 h 0.8847 v -0.08785 -2.791044 h 0.78548 v -0.828373 z m 3.22099,0 v 3.707267 h 0.87902 v -0.08785 -1.462959 h 1.1715 v 1.550809 h 0.8754 v -3.707267 h -0.8754 v 1.333769 h -1.1715 v -1.333769 z m -20.15174,0.11989 -0.0274,0.0863 -2.98845,9.580294 1.07849,0.165881 0.15451,-0.111104 c 0.42646,-0.306487 0.86448,-0.541011 1.31775,-0.709001 0.44801,-0.15971 1.02096,-0.248047 1.71669,-0.248047 0.14765,0 0.29169,0.0053 0.43305,0.01447 0.5146,-0.624991 1.08564,-1.201873 1.70584,-1.721859 -0.62161,-0.158733 -1.28057,-0.238228 -1.97456,-0.238228 -0.50123,0 -0.95462,0.04879 -1.36374,0.149345 -0.0798,0.0164 -0.13587,0.04091 -0.20257,0.06511 l 1.62884,-5.031218 h 7.15047 v -2.001944 z m 11.68146,5.331974 c -2.02657,0.01916 -4.02264,0.562279 -5.78001,1.573547 -3.50876,2.032716 -5.87394,5.828364 -5.87406,10.167855 0,0.397356 0.0197,0.790355 0.0584,1.177705 0.32753,0.06453 0.67723,0.09767 1.05885,0.09767 0.30019,0 0.56825,-0.02567 0.81649,-0.07441 -0.0641,-0.381602 -0.11639,-0.781573 -0.15554,-1.20096 -2e-5,-3.697263 2.00039,-6.915553 4.98005,-8.635649 2.97952,-1.720926 6.76697,-1.844524 9.9689,0.0047 4.41873,3.132483 5.02579,6.522653 3.6649,9.385473 -0.16002,-0.409124 -0.4154,-0.867329 -0.78962,-1.016475 -0.0905,-0.0361 -0.1788,-0.05158 -0.26458,-0.05168 h -5.2e-4 c -0.60131,1.43e-4 -1.06247,0.773596 -1.06247,0.773596 h -0.2682 l -0.8661,-0.36742 c -0.18389,-0.07026 -0.29287,-0.08433 -0.41961,-0.08527 l -5.1e-4,5.17e-4 c -0.0355,-2.64e-4 -0.0723,3.62e-4 -0.11266,10e-4 -0.25609,0.0048 -0.30179,0.07958 -0.30179,0.07958 h -5.2e-4 v 5.17e-4 l -7.19594,1.178739 0.58084,0.444418 0.0682,0.08578 c -0.0297,0.04063 0.23059,4.912425 -0.37828,6.066296 -2.04205,0.160696 -3.96327,-0.380145 -5.37434,-1.917712 -0.67953,0.22759 -1.38891,0.37247 -2.1177,0.436665 2.0951,3.226527 5.72922,5.365558 9.85417,5.365564 2.13791,-10e-6 4.14459,-0.57536 5.87355,-1.578198 v -5.17e-4 c 1.73298,-0.995908 3.23467,-2.445946 4.30361,-4.297412 3.2381,-5.608582 1.30545,-12.805391 -4.3031,-16.043465 -1.87908,-1.084892 -3.93585,-1.589602 -5.96242,-1.570446 z m -4.40645,4.353222 c -0.59189,0.360367 -1.13561,0.790503 -1.62161,1.277958 0.21289,0.310344 0.39197,0.650964 0.5364,1.025778 0.254,0.659139 0.38086,1.366992 0.38086,2.140437 0,0.847745 -0.13584,1.624174 -0.40824,2.337842 l -0.002,0.0057 -0.002,0.0041 c -0.25522,0.694609 -0.62399,1.296585 -1.11311,1.818493 -0.47041,0.503107 -1.04119,0.905726 -1.72496,1.212846 v -0.0021 c -0.65318,0.283821 -1.3696,0.429948 -2.17558,0.429948 -1.12583,0 -2.12981,-0.240847 -3.0334,-0.716752 h -0.002 c -0.002,-8.4e-4 -0.002,-0.0026 -0.004,-0.0036 -0.8746,-0.471664 -1.60945,-1.180143 -2.21485,-2.164209 l -0.26975,-0.437182 -0.40618,0.308508 -1.25212,0.945162 0.23255,0.359668 h -0.002 c 0.73743,1.162195 1.7101,2.074892 2.89853,2.71663 1.1894,0.642255 2.51332,0.962732 3.94136,0.962732 1.08307,0 2.09216,-0.195545 3.01584,-0.587561 0.92577,-0.38563 1.72869,-0.918187 2.39468,-1.598352 l 0.006,-0.0041 0.006,-0.0083 0.004,-0.0021 c 0.68652,-0.686136 1.21637,-1.512097 1.58595,-2.460832 0.39156,-0.957565 0.58395,-2.000718 0.58395,-3.117122 0,-1.037725 -0.17153,-2.002674 -0.52348,-2.884579 l -0.0119,-0.02739 -0.0181,-0.01344 c -0.2081,-0.548944 -0.47434,-1.057617 -0.80098,-1.518254 z m 7.583,1.210262 c -0.16746,-0.002 -0.30453,0.13227 -0.30644,0.299724 -0.001,0.143534 0.0975,0.268813 0.23771,0.299723 0,0 0.0703,0.210239 -0.0568,0.293005 -0.12726,0.08276 -0.50271,0.190107 -0.50384,0.554488 0.18546,-0.04915 1.03319,-0.218043 1.19372,-0.226342 -0.0428,-0.02788 -0.22003,-0.338071 -0.41237,-0.376722 -0.0307,-0.03536 -0.0449,-0.09817 -0.0512,-0.152445 -0.006,-0.05515 -0.005,-0.101803 -0.005,-0.101803 0.0175,-0.0061 0.0345,-0.01402 0.0506,-0.02325 0.0933,-0.05326 0.15156,-0.15193 0.15296,-0.259416 0.002,-0.150289 -0.10558,-0.290518 -0.25528,-0.302824 h -5.1e-4 c -0.0144,-0.0022 -0.0289,-0.0035 -0.0434,-0.0036 z m 1.83658,1.171505 c -0.004,-4.6e-5 -0.009,0.001 -0.0134,0.0031 l -7.83776,1.676383 1.29863,0.594279 c 0.003,-0.0064 0.008,-0.0115 0.0134,-0.0155 l -0.0134,0.0155 0.0408,0.07235 c -0.003,2.72e-4 -0.006,-2.38e-4 -0.008,-5.17e-4 l 0.0212,2.100647 v 0.0052 c 3e-5,0.008 9e-5,0.07386 0.001,0.130224 0.001,0.05598 0.004,0.325621 0.005,0.362252 0.003,-0.0024 0.005,-0.0045 0.008,-0.0072 0.0147,-0.01302 0.03,-0.02587 0.045,-0.03876 0.03,-0.02577 0.0605,-0.05144 0.0915,-0.07648 0.0309,-0.02504 0.0622,-0.04972 0.0935,-0.0739 0.0314,-0.02418 0.0626,-0.04762 0.094,-0.0708 0.0314,-0.02317 0.063,-0.04618 0.0941,-0.06821 0.0311,-0.02201 0.0617,-0.04337 0.092,-0.06408 0.0303,-0.02073 0.0603,-0.04066 0.0894,-0.05994 0.0291,-0.01929 0.0577,-0.03759 0.0853,-0.05529 0.0275,-0.01774 0.0541,-0.03517 0.0796,-0.05116 0.0255,-0.01599 0.0497,-0.03081 0.0729,-0.04496 0.0462,-0.02826 0.0873,-0.05288 0.12144,-0.07286 0.0259,-0.01518 0.0437,-0.0248 0.061,-0.03462 0.076,-0.524295 0.41668,-2.054211 1.82159,-2.291333 1.25152,-0.164374 2.00477,0.991927 1.99988,2.212268 0.22779,0.02294 1.33417,0.537145 1.3348,0.537435 l 0.54415,0.0088 c 0,0 0.005,-0.450489 0.002,-0.979785 -0.004,-0.657236 0.31322,-1.921849 1.11104,-1.523938 0.49123,0.244997 0.67938,1.047067 0.75138,1.627807 l 0.26251,-0.109037 0.38293,0.601514 -0.0811,-1.602487 c -0.007,5.18e-4 -0.0147,-10e-4 -0.0212,-0.0046 l 0.16433,-0.01034 1.22008,-0.211873 -3.86023,-2.43551 c 0,0 -0.0234,-0.0234 -0.0848,-0.03617 -0.009,-0.002 -0.0181,-0.0046 -0.0284,-0.0047 -0.0158,-0.002 -0.0334,-0.0033 -0.0532,-0.0036 z m -2.98948,2.154907 c -1.93356,0.07415 -2.24844,1.90531 -2.24844,1.90531 0,0 0.26204,-0.211091 0.34364,-0.248563 0.31483,-1.361443 1.9048,-1.656747 1.9048,-1.656747 z m 4.13153,0.223242 c -0.19788,0.0055 -0.34365,0.1726 -0.34365,0.1726 0.53567,0.176555 0.73523,1.055172 0.78806,1.352889 -0.0981,0.02962 -0.19398,0.05297 -0.25476,0.05426 -0.17082,0.0037 -0.9958,-0.358635 -0.9958,-0.358635 l 0.002,1.093474 1.63143,-0.815454 -0.0196,-0.101286 c -0.22686,-1.156232 -0.55829,-1.404768 -0.80719,-1.397848 z m -5.33973,1.204578 -3.42201,2.566768 1.13223,-0.188619 0.15503,-0.02636 4.11913,-0.687813 0.13436,-0.0217 1.72495,-0.288355 z m 6.55516,0.371037 -1.87792,1.00459 0.96066,0.412377 c 0.009,-0.0144 0.0177,-0.02849 0.0264,-0.04237 0.009,-0.01389 0.0171,-0.02743 0.0258,-0.04082 0.009,-0.0134 0.0175,-0.02637 0.0264,-0.03927 0.009,-0.01292 0.0179,-0.02581 0.0269,-0.03824 0.009,-0.01245 0.0179,-0.02472 0.0269,-0.03669 0.009,-0.01193 0.0183,-0.02364 0.0274,-0.03514 0.009,-0.01155 0.0183,-0.02304 0.0274,-0.03411 0.009,-0.01103 0.0182,-0.02193 0.0274,-0.03256 0.009,-0.01064 0.0182,-0.02081 0.0274,-0.03101 0.009,-0.01009 0.0187,-0.02019 0.0279,-0.02997 0.009,-0.0098 0.0186,-0.01959 0.0279,-0.02894 0.009,-0.0093 0.0186,-0.01844 0.0279,-0.02739 0.009,-0.009 0.0181,-0.01729 0.0274,-0.02584 0.009,-0.0086 0.0191,-0.01715 0.0284,-0.02532 0.009,-0.0082 0.0186,-0.01598 0.0279,-0.02377 0.009,-0.0078 0.0186,-0.01584 0.0279,-0.02325 0.009,-0.0075 0.0181,-0.01463 0.0274,-0.0217 0.009,-0.007 0.0187,-0.01396 0.0279,-0.02067 0.009,-0.0067 0.0187,-0.01276 0.0279,-0.01912 0.009,-0.0064 0.0182,-0.01256 0.0274,-0.0186 0.009,-0.006 0.0183,-0.01187 0.0274,-0.01757 0.009,-0.0056 0.0183,-0.01167 0.0274,-0.01705 0.009,-0.0054 0.0184,-0.01044 0.0274,-0.0155 0.009,-0.005 0.018,-0.0102 0.0269,-0.01499 0.009,-0.0048 0.018,-0.0089 0.0269,-0.01344 0.009,-0.0045 0.0181,-0.0093 0.0269,-0.01344 0.009,-0.0041 0.0167,-0.008 0.0253,-0.01189 0.009,-0.0039 0.0183,-0.0076 0.0269,-0.01137 0.009,-0.0037 0.0168,-0.0074 0.0253,-0.01085 0.008,-0.0033 0.017,-0.0065 0.0253,-0.0098 0.0167,-0.0064 0.0329,-0.01221 0.0491,-0.01757 0.0162,-0.0055 0.0324,-0.01052 0.0481,-0.01499 0.0156,-0.0045 0.031,-0.0087 0.046,-0.0124 0.015,-0.0037 0.0296,-0.007 0.0439,-0.0098 0.0143,-0.0031 0.0282,-0.0059 0.0419,-0.0083 0.0136,-0.0023 0.0265,-0.0045 0.0393,-0.0062 0.0128,-0.0018 0.0253,-0.0028 0.0372,-0.0041 0.0119,-0.0011 0.0232,-0.0023 0.0341,-0.0031 0.0109,-7.77e-4 0.022,-0.0015 0.032,-0.0021 0.01,-3.41e-4 0.0195,-8.92e-4 0.0284,-10e-4 0.009,-4.8e-5 0.017,-9e-5 0.0248,0 0.008,5.7e-5 0.015,1.76e-4 0.0217,5.17e-4 0.007,1.04e-4 0.0132,7.46e-4 0.0186,0.001 0.0109,7.19e-4 0.0191,0.0014 0.0248,0.0021 0.005,5.13e-4 0.006,10e-4 0.007,10e-4 z m -2.88665,1.720308 0.11421,4.476213 c -0.0875,0.05601 -0.17572,0.111007 -0.26459,0.165364 0.0271,-1.975862 0.0597,-4.530267 0.0434,-4.542358 z m -1.56941,0.802018 c 0.005,-7.11e-4 0.01,0.002 0.0119,0.0021 0.003,3e-5 0.0104,-0.0049 0.0155,0 0.0836,0.08135 0.07,2.774678 0.0863,4.274158 10e-4,0.09396 0.004,0.215498 0.005,0.31936 -0.0487,0.02874 -0.0978,0.05657 -0.14676,0.08475 1.1e-4,-0.133946 9.8e-4,-0.284526 5.2e-4,-0.403077 -0.006,-1.499565 -0.0591,-4.192641 0.0233,-4.275191 0.001,-0.0012 0.003,-0.0018 0.004,-0.0021 z m -0.9555,0.241846 c 0.13015,-8.53e-4 0.21508,0.01331 0.22789,0.04806 0.0728,2.423404 0.0391,3.900944 -0.0134,4.775936 -0.15002,0.07601 -0.30056,0.150236 -0.45217,0.220658 0.1597,-2.366969 0.0775,-4.427056 0.0775,-4.426603 v -5.17e-4 c -0.64259,0.01588 -0.95084,0.09457 -0.95084,0.09457 l -0.0388,4.717542 c -0.33164,0.126309 -0.66516,0.238523 -0.9989,0.334863 0.17286,-0.759227 0.0119,-1.367066 0.0661,-5.419824 0.1029,-0.06014 1.51858,-0.340984 2.08256,-0.344682 z m -5.90661,13.481347 0.047,0.734839 h 0.30903 l 0.047,-0.734839 z m -15.53497,0.01137 c -0.22462,0 -0.39859,0.05216 -0.52194,0.157096 -0.12335,0.1031 -0.185,0.247619 -0.185,0.433566 0,0.09573 0.0192,0.181348 0.0579,0.256832 0.0405,0.07364 0.0954,0.136549 0.16537,0.188102 0.0718,0.05155 0.15593,0.08924 0.25166,0.113171 l 0.27337,0.06873 c 0.0663,0.01841 0.11693,0.04512 0.15193,0.0801 0.0368,0.03498 0.0553,0.07541 0.0553,0.12144 0,0.05891 -0.026,0.10684 -0.0775,0.14366 -0.0497,0.03685 -0.11211,0.05458 -0.18759,0.05271 -0.0773,-0.0018 -0.14174,-0.02232 -0.19327,-0.06098 -0.0497,-0.0405 -0.0851,-0.08717 -0.10542,-0.14056 l -0.43873,0.124024 c 0.0111,0.06259 0.0385,0.1215 0.0827,0.176733 0.0442,0.05339 0.10035,0.102058 0.16846,0.146244 0.07,0.04235 0.14735,0.07655 0.23203,0.10232 0.0865,0.02393 0.17689,0.03617 0.27079,0.03617 0.15096,0 0.27976,-0.02322 0.38654,-0.06925 0.10681,-0.04787 0.18768,-0.115009 0.24288,-0.201538 0.0571,-0.08653 0.0858,-0.190616 0.0858,-0.312126 0,-0.134397 -0.0444,-0.254211 -0.13281,-0.359151 -0.0865,-0.106783 -0.20783,-0.179415 -0.36432,-0.218075 l -0.27337,-0.06873 c -0.0607,-0.01473 -0.10866,-0.0372 -0.14366,-0.06666 -0.035,-0.0313 -0.0527,-0.06973 -0.0527,-0.115755 0,-0.06628 0.0212,-0.116949 0.0636,-0.151929 0.0442,-0.03498 0.1051,-0.05271 0.18242,-0.05271 0.0773,0 0.13972,0.02047 0.18759,0.06098 0.0497,0.04051 0.0819,0.08569 0.0966,0.135393 l 0.43667,-0.129708 c -0.0387,-0.09942 -0.0913,-0.182284 -0.15761,-0.248564 -0.0644,-0.06628 -0.14256,-0.116205 -0.23462,-0.149345 -0.0921,-0.03498 -0.19963,-0.05219 -0.32297,-0.05219 z m 8.88731,0 c -0.22461,0 -0.39858,0.05216 -0.52193,0.157096 -0.12336,0.1031 -0.185,0.247619 -0.185,0.433566 0,0.09573 0.0192,0.181348 0.0579,0.256832 0.0405,0.07364 0.0959,0.136549 0.16588,0.188102 0.0718,0.05155 0.15541,0.08924 0.25115,0.113171 l 0.27337,0.06873 c 0.0663,0.01841 0.11693,0.04512 0.15193,0.0801 0.0368,0.03498 0.0553,0.07541 0.0553,0.12144 0,0.05891 -0.026,0.10684 -0.0775,0.14366 -0.0497,0.03685 -0.1121,0.05458 -0.18759,0.05271 -0.0773,-0.0018 -0.14173,-0.02232 -0.19327,-0.06098 -0.0497,-0.0405 -0.0846,-0.08717 -0.1049,-0.14056 l -0.43925,0.124024 c 0.011,0.06259 0.0385,0.1215 0.0827,0.176733 0.0442,0.05339 0.10035,0.102058 0.16847,0.146244 0.07,0.04235 0.14734,0.07655 0.23202,0.10232 0.0865,0.02393 0.1769,0.03617 0.27079,0.03617 0.15097,0 0.27976,-0.02322 0.38654,-0.06925 0.10681,-0.04787 0.1882,-0.115009 0.24339,-0.201538 0.0571,-0.08653 0.0853,-0.190616 0.0853,-0.312126 0,-0.134397 -0.0439,-0.254211 -0.13229,-0.359151 -0.0865,-0.106783 -0.20835,-0.179415 -0.36484,-0.218075 l -0.27336,-0.06873 c -0.0607,-0.01473 -0.10867,-0.0372 -0.14366,-0.06666 -0.035,-0.0313 -0.0522,-0.06973 -0.0522,-0.115755 0,-0.06628 0.0212,-0.116949 0.0636,-0.151929 0.0442,-0.03498 0.10458,-0.05271 0.1819,-0.05271 0.0773,0 0.14024,0.02047 0.18811,0.06098 0.0497,0.04051 0.0819,0.08569 0.0966,0.135393 l 0.43615,-0.129708 c -0.0387,-0.09942 -0.0908,-0.182284 -0.1571,-0.248564 -0.0644,-0.06628 -0.14307,-0.116205 -0.23512,-0.149345 -0.0921,-0.03498 -0.19963,-0.05219 -0.32298,-0.05219 z m 8.13749,0 c -0.22461,0 -0.39858,0.05216 -0.52194,0.157096 -0.12335,0.1031 -0.185,0.247619 -0.185,0.433566 0,0.09573 0.0192,0.181348 0.0579,0.256832 0.0405,0.07364 0.0959,0.136549 0.16588,0.188102 0.0718,0.05155 0.15541,0.08924 0.25115,0.113171 l 0.27337,0.06873 c 0.0663,0.01841 0.11693,0.04512 0.15193,0.0801 0.0368,0.03498 0.0553,0.07541 0.0553,0.12144 0,0.05891 -0.0255,0.10684 -0.077,0.14366 -0.0497,0.03685 -0.11261,0.05458 -0.1881,0.05271 -0.0773,-0.0018 -0.14174,-0.02232 -0.19327,-0.06098 -0.0497,-0.0405 -0.0846,-0.08717 -0.1049,-0.14056 l -0.43925,0.124024 c 0.011,0.06259 0.039,0.1215 0.0832,0.176733 0.0442,0.05339 0.10034,0.102058 0.16846,0.146244 0.07,0.04235 0.14683,0.07655 0.23151,0.10232 0.0865,0.02393 0.17689,0.03617 0.27079,0.03617 0.15096,0 0.27976,-0.02322 0.38654,-0.06925 0.10681,-0.04787 0.18819,-0.115009 0.24339,-0.201538 0.0571,-0.08653 0.0853,-0.190616 0.0853,-0.312126 0,-0.134397 -0.0439,-0.254211 -0.13229,-0.359151 -0.0865,-0.106783 -0.20835,-0.179415 -0.36484,-0.218075 l -0.27337,-0.06873 c -0.0607,-0.01473 -0.10866,-0.0372 -0.14366,-0.06666 -0.035,-0.0313 -0.0522,-0.06973 -0.0522,-0.115755 0,-0.06628 0.0212,-0.116949 0.0636,-0.151929 0.0442,-0.03498 0.10458,-0.05271 0.1819,-0.05271 0.0773,0 0.14024,0.02047 0.1881,0.06098 0.0497,0.04051 0.0819,0.08569 0.0966,0.135393 l 0.43615,-0.129708 c -0.0387,-0.09942 -0.0908,-0.182284 -0.1571,-0.248564 -0.0644,-0.06628 -0.14307,-0.116205 -0.23513,-0.149345 -0.0921,-0.03498 -0.19962,-0.05219 -0.32297,-0.05219 z m 2.66237,0 c -0.19147,0 -0.3607,0.04318 -0.50798,0.129708 -0.14544,0.08469 -0.26051,0.2025 -0.3452,0.353467 -0.0829,0.149125 -0.12454,0.321095 -0.12454,0.516247 0,0.195153 0.0417,0.368382 0.12454,0.519348 0.0847,0.149126 0.19976,0.266938 0.3452,0.353467 0.14728,0.08469 0.31651,0.127124 0.50798,0.127124 0.14176,0 0.27181,-0.02522 0.38964,-0.07493 0.11782,-0.04971 0.21991,-0.118334 0.30644,-0.206705 0.0865,-0.09021 0.15165,-0.194299 0.19585,-0.312126 l -0.41703,-0.141077 c -0.0313,0.06444 -0.069,0.121343 -0.11317,0.171049 -0.0423,0.04971 -0.093,0.08866 -0.15193,0.116272 -0.0589,0.02761 -0.12606,0.04134 -0.20154,0.04134 -0.1031,0 -0.19494,-0.02471 -0.27595,-0.07441 -0.0792,-0.05155 -0.1421,-0.121435 -0.1881,-0.209806 -0.0442,-0.09021 -0.0661,-0.193555 -0.0661,-0.309542 0,-0.115986 0.022,-0.21807 0.0661,-0.306441 0.0442,-0.09021 0.10584,-0.1601 0.185,-0.209806 0.0792,-0.04971 0.16953,-0.07493 0.27079,-0.07493 0.0718,0 0.13743,0.01298 0.19637,0.03876 0.0608,0.02578 0.11419,0.06272 0.16019,0.110588 0.0479,0.04786 0.0856,0.104025 0.11318,0.168465 l 0.41702,-0.141077 c -0.046,-0.115986 -0.11242,-0.21807 -0.19895,-0.306441 -0.0847,-0.08837 -0.18602,-0.156255 -0.30386,-0.204122 -0.11598,-0.04971 -0.24403,-0.07441 -0.38395,-0.07441 z m 9.21442,0 c -0.19884,0 -0.37429,0.04318 -0.5271,0.129708 -0.15097,0.08469 -0.27004,0.2025 -0.35657,0.353467 -0.0865,0.149125 -0.1297,0.321095 -0.1297,0.516247 0,0.195153 0.0432,0.368382 0.1297,0.519348 0.0865,0.149126 0.2056,0.266938 0.35657,0.353467 0.15281,0.08469 0.32826,0.127124 0.5271,0.127124 0.17305,0 0.32507,-0.03346 0.45579,-0.09974 0.13071,-0.06628 0.23405,-0.163615 0.30954,-0.292489 0.0703,-0.121681 0.1078,-0.268113 0.11265,-0.43925 h 5.2e-4 v -0.262516 h -0.86455 v 0.342615 h 0.43925 c -0.006,0.05975 -0.0245,0.113288 -0.0553,0.160197 -0.0387,0.05891 -0.0914,0.104836 -0.15761,0.137976 -0.0663,0.03314 -0.1424,0.04961 -0.22893,0.04961 -0.11415,0 -0.21475,-0.02545 -0.30127,-0.077 -0.0866,-0.05155 -0.15296,-0.121435 -0.19896,-0.209806 -0.046,-0.09021 -0.0687,-0.193555 -0.0687,-0.309542 0,-0.115986 0.024,-0.21807 0.0718,-0.306441 0.0479,-0.09021 0.11301,-0.1601 0.19586,-0.209806 0.0847,-0.04971 0.18127,-0.07493 0.2899,-0.07493 0.0552,0 0.1099,0.01024 0.1633,0.03049 0.0534,0.01841 0.10204,0.04512 0.14624,0.0801 0.0461,0.03498 0.083,0.07467 0.11059,0.118856 l 0.3669,-0.220658 c -0.0497,-0.081 -0.1121,-0.152891 -0.18758,-0.215491 -0.0755,-0.0626 -0.16384,-0.111781 -0.2651,-0.146761 -0.0994,-0.03682 -0.211,-0.05478 -0.33435,-0.05478 z m -22.02914,0.0026 c -0.197,0 -0.37171,0.04318 -0.52452,0.129708 -0.15097,0.08469 -0.26952,0.2025 -0.35605,0.353467 -0.0865,0.149125 -0.13023,0.321095 -0.13023,0.516247 0,0.193311 0.0437,0.365798 0.13023,0.516764 0.0865,0.149126 0.20583,0.266938 0.35863,0.353467 0.15282,0.08469 0.32879,0.127124 0.52762,0.127124 0.19699,0 0.37097,-0.04243 0.52193,-0.127124 0.15097,-0.08653 0.26878,-0.204341 0.35347,-0.353467 0.0865,-0.150966 0.12971,-0.323453 0.12971,-0.516764 0,-0.195152 -0.0432,-0.367122 -0.12971,-0.516247 -0.0865,-0.150967 -0.20635,-0.268779 -0.35915,-0.353467 -0.15097,-0.08653 -0.32493,-0.129708 -0.52193,-0.129708 z m 14.92622,0 c -0.197,0 -0.37223,0.04318 -0.52504,0.129708 -0.15096,0.08469 -0.26952,0.2025 -0.35605,0.353467 -0.0865,0.149125 -0.12971,0.321095 -0.12971,0.516247 0,0.193311 0.0432,0.365798 0.12971,0.516764 0.0865,0.149126 0.20635,0.266938 0.35915,0.353467 0.15282,0.08469 0.32879,0.127124 0.52762,0.127124 0.19699,0 0.37097,-0.04243 0.52193,-0.127124 0.15097,-0.08653 0.26878,-0.204341 0.35347,-0.353467 0.0865,-0.150966 0.12971,-0.323453 0.12971,-0.516764 0,-0.195152 -0.0432,-0.367122 -0.12971,-0.516247 -0.0865,-0.150967 -0.20634,-0.268779 -0.35915,-0.353467 -0.15097,-0.08653 -0.32494,-0.129708 -0.52193,-0.129708 z m -9.38754,0.02739 -0.37259,0.0031 h -0.38654 v 1.932699 h 0.44442 v -0.610299 h 0.32866 c 0.13808,0 0.26064,-0.02819 0.36742,-0.08527 0.10676,-0.05707 0.18963,-0.135711 0.24856,-0.235128 0.0607,-0.101259 0.091,-0.215065 0.091,-0.342098 0,-0.130714 -0.0315,-0.245781 -0.0941,-0.345199 -0.0608,-0.09942 -0.14511,-0.177537 -0.25373,-0.23461 -0.10863,-0.0571 -0.23319,-0.08507 -0.3731,-0.0832 z m 1.00665,0 v 1.9358 l 0.44494,0.0031 v -0.784448 h 0.80356 v 0.781348 h 0.44442 v -1.932699 h -0.44442 v 0.74259 h -0.80356 v -0.74259 z m -12.48864,0.0031 v 0.408761 h 0.56327 v 1.523938 h 0.44184 v -1.523938 h 0.56379 v -0.408761 z m 4.17442,0 v 1.237134 c 0,0.07549 -0.013,0.137879 -0.0388,0.187585 -0.0258,0.04787 -0.0595,0.08407 -0.1018,0.108004 -0.0424,0.02209 -0.0895,0.03307 -0.14108,0.03307 -0.0681,0 -0.12504,-0.02248 -0.17104,-0.06666 -0.046,-0.04419 -0.081,-0.108581 -0.10491,-0.19327 l -0.38654,0.130225 c 0.006,0.05339 0.022,0.11104 0.0496,0.173633 0.0294,0.06075 0.0706,0.11966 0.12403,0.176733 0.0552,0.05523 0.12237,0.100413 0.20153,0.135393 0.081,0.03498 0.17537,0.05271 0.28216,0.05271 0.10862,0 0.20796,-0.01499 0.29817,-0.04444 0.0902,-0.02946 0.16763,-0.07063 0.23203,-0.124024 0.0644,-0.05523 0.11383,-0.120886 0.14883,-0.19637 0.035,-0.07732 0.0527,-0.162938 0.0527,-0.256832 v -1.352889 z m 4.85655,0 v 1.932699 h 0.44494 0.82837 V 56.96052 H 132.7968 V 56.5931 h 0.68212 v -0.394808 h -0.68212 v -0.353466 h 0.81442 v -0.408761 h -0.81442 z m 13.19041,0 v 1.932699 h 0.44442 0.8232 V 56.96052 h -0.8232 v -1.524455 z m 1.57562,0 v 1.932699 h 0.44441 0.82321 V 56.96052 h -0.82321 v -1.524455 z m 1.57561,0 v 1.932699 h 0.44442 0.82837 V 56.96052 h -0.82837 V 56.5931 h 0.68213 v -0.394808 h -0.68213 v -0.353466 h 0.81493 v -0.408761 h -0.81493 z m 3.79202,0 v 1.932699 h 0.44441 0.82838 V 56.96052 h -0.82838 V 56.5931 h 0.68213 v -0.394808 h -0.68213 v -0.353466 h 0.81442 v -0.408761 h -0.81442 z m -23.22132,0.375171 c 0.10862,0 0.20447,0.02597 0.28732,0.07752 0.0828,0.04971 0.14798,0.119594 0.19585,0.209806 0.0479,0.08837 0.0718,0.190454 0.0718,0.306441 0,0.114145 -0.0227,0.216746 -0.0687,0.306958 -0.046,0.08837 -0.11042,0.156999 -0.19327,0.206706 -0.0829,0.04971 -0.1787,0.07493 -0.28732,0.07493 -0.10863,0 -0.20522,-0.02522 -0.28991,-0.07493 -0.0847,-0.04971 -0.15108,-0.118335 -0.19895,-0.206706 -0.0479,-0.09021 -0.0718,-0.192813 -0.0718,-0.306958 0,-0.115987 0.024,-0.218071 0.0718,-0.306441 0.0479,-0.09021 0.11301,-0.1601 0.19585,-0.209806 0.0829,-0.05155 0.17871,-0.07752 0.28733,-0.07752 z m 14.92622,0 c 0.10862,0 0.20447,0.02597 0.28732,0.07752 0.0828,0.04971 0.14798,0.119594 0.19585,0.209806 0.0479,0.08837 0.0718,0.190454 0.0718,0.306441 0,0.114145 -0.0232,0.216746 -0.0692,0.306958 -0.046,0.08837 -0.11042,0.156999 -0.19327,0.206706 -0.0828,0.04971 -0.17818,0.07493 -0.2868,0.07493 h -5.2e-4 c -0.10862,0 -0.20521,-0.02522 -0.2899,-0.07493 -0.0847,-0.04971 -0.15057,-0.118335 -0.19844,-0.206706 -0.0479,-0.09021 -0.0718,-0.192813 -0.0718,-0.306958 0,-0.115987 0.024,-0.218071 0.0718,-0.306441 0.0479,-0.09021 0.11301,-0.1601 0.19585,-0.209806 0.0829,-0.05155 0.17871,-0.07752 0.28733,-0.07752 z m -9.70225,0.03049 h 0.30385 c 0.0552,0 0.10313,0.01098 0.14366,0.03307 0.0424,0.02025 0.0746,0.04971 0.0966,0.08837 0.0239,0.03866 0.0357,0.0831 0.0357,0.132808 0,0.07549 -0.024,0.137135 -0.0718,0.185002 -0.0479,0.04603 -0.111,0.06925 -0.19016,0.06925 h -0.31781 z m -9.12968,1.063501 c -0.0644,0.0029 -0.11977,0.02781 -0.1664,0.07441 -0.0497,0.04971 -0.0744,0.108614 -0.0744,0.176733 0,0.06996 0.0247,0.129611 0.0744,0.179318 0.0497,0.04971 0.10936,0.07493 0.17932,0.07493 0.0681,0 0.127,-0.02522 0.17673,-0.07493 0.0497,-0.04971 0.0749,-0.109358 0.0749,-0.179318 0,-0.06812 -0.0252,-0.127026 -0.0749,-0.176733 -0.0497,-0.04971 -0.10861,-0.07441 -0.17673,-0.07441 -0.004,0 -0.009,-1.94e-4 -0.0129,0 z" /></g></svg>
